<?xml version="1.0" encoding="UTF-8" standalone="no"?>
<!DOCTYPE svg PUBLIC "-//W3C//DTD SVG 1.1//EN"
 "http://www.w3.org/Graphics/SVG/1.1/DTD/svg11.dtd">
<!-- Generated by graphviz version 2.47.0 (20210316.0004)
 -->
<!-- Title: dependencies Pages: 1 -->
<svg width="554pt" height="284pt"
 viewBox="0.00 0.00 554.00 284.00" xmlns="http://www.w3.org/2000/svg" xmlns:xlink="http://www.w3.org/1999/xlink">
<g id="graph0" class="graph" transform="scale(1 1) rotate(0) translate(4 280)">
<title>dependencies</title>
<polygon fill="white" stroke="transparent" points="-4,4 -4,-280 550,-280 550,4 -4,4"/>
<text text-anchor="start" x="252.01" y="-42.4" font-family="Times-12" font-weight="bold" font-size="14.00">Legend</text>
<polygon fill="#ffffb3" stroke="transparent" points="39,-10 39,-30 59,-30 59,-10 39,-10"/>
<text text-anchor="start" x="62.63" y="-15.4" font-family="Times-12" font-size="14.00"> &#160;Declarations</text>
<polygon fill="#8dd3c7" stroke="transparent" points="152,-10 152,-30 172,-30 172,-10 152,-10"/>
<text text-anchor="start" x="175.73" y="-15.4" font-family="Times-12" font-size="14.00"> &#160;Module</text>
<polygon fill="#80b1d3" stroke="transparent" points="238,-10 238,-30 258,-30 258,-10 238,-10"/>
<text text-anchor="start" x="261.78" y="-15.4" font-family="Times-12" font-size="14.00"> &#160;Bootstrap</text>
<polygon fill="#fdb462" stroke="transparent" points="335,-10 335,-30 355,-30 355,-10 335,-10"/>
<text text-anchor="start" x="358.67" y="-15.4" font-family="Times-12" font-size="14.00"> &#160;Providers</text>
<polygon fill="#fb8072" stroke="transparent" points="431,-10 431,-30 451,-30 451,-10 431,-10"/>
<text text-anchor="start" x="454.73" y="-15.4" font-family="Times-12" font-size="14.00"> &#160;Exports</text>
<g id="clust1" class="cluster">
<title>cluster_PersistenceModule</title>
<polygon fill="none" stroke="black" stroke-dasharray="1,5" points="8,-70 8,-268 538,-268 538,-70 8,-70"/>
</g>
<g id="clust6" class="cluster">
<title>cluster_PersistenceModule_providers</title>
<polygon fill="none" stroke="black" points="16,-78 16,-130 530,-130 530,-78 16,-78"/>
</g>
<g id="clust4" class="cluster">
<title>cluster_PersistenceModule_exports</title>
<polygon fill="none" stroke="black" points="214,-208 214,-260 354,-260 354,-208 214,-208"/>
</g>
<!-- PersistenceService  -->
<g id="node1" class="node">
<title>PersistenceService </title>
<polygon fill="#fb8072" stroke="black" points="346.45,-252 221.55,-252 221.55,-216 346.45,-216 346.45,-252"/>
<text text-anchor="middle" x="284" y="-229.8" font-family="Times,serif" font-size="14.00">PersistenceService </text>
</g>
<!-- PersistenceModule -->
<g id="node2" class="node">
<title>PersistenceModule</title>
<polygon fill="#8dd3c7" stroke="black" points="345.02,-187 342.02,-191 321.02,-191 318.02,-187 222.98,-187 222.98,-151 345.02,-151 345.02,-187"/>
<text text-anchor="middle" x="284" y="-164.8" font-family="Times,serif" font-size="14.00">PersistenceModule</text>
</g>
<!-- PersistenceModule&#45;&gt;PersistenceService  -->
<g id="edge1" class="edge">
<title>PersistenceModule&#45;&gt;PersistenceService </title>
<path fill="none" stroke="black" stroke-dasharray="5,2" d="M284,-187.11C284,-187.11 284,-205.99 284,-205.99"/>
<polygon fill="black" stroke="black" points="280.5,-205.99 284,-215.99 287.5,-205.99 280.5,-205.99"/>
</g>
<!-- CachingService -->
<g id="node3" class="node">
<title>CachingService</title>
<ellipse fill="#fdb462" stroke="black" cx="450" cy="-104" rx="72.35" ry="18"/>
<text text-anchor="middle" x="450" y="-99.8" font-family="Times,serif" font-size="14.00">CachingService</text>
</g>
<!-- CachingService&#45;&gt;PersistenceModule -->
<g id="edge2" class="edge">
<title>CachingService&#45;&gt;PersistenceModule</title>
<path fill="none" stroke="black" d="M450,-122.11C450,-141.34 450,-169 450,-169 450,-169 355.34,-169 355.34,-169"/>
<polygon fill="black" stroke="black" points="355.34,-165.5 345.34,-169 355.34,-172.5 355.34,-165.5"/>
</g>
<!-- DatabaseService -->
<g id="node4" class="node">
<title>DatabaseService</title>
<ellipse fill="#fdb462" stroke="black" cx="284" cy="-104" rx="75.26" ry="18"/>
<text text-anchor="middle" x="284" y="-99.8" font-family="Times,serif" font-size="14.00">DatabaseService</text>
</g>
<!-- DatabaseService&#45;&gt;PersistenceModule -->
<g id="edge3" class="edge">
<title>DatabaseService&#45;&gt;PersistenceModule</title>
<path fill="none" stroke="black" d="M284,-122.11C284,-122.11 284,-140.99 284,-140.99"/>
<polygon fill="black" stroke="black" points="280.5,-140.99 284,-150.99 287.5,-140.99 280.5,-140.99"/>
</g>
<!-- PersistenceService -->
<g id="node5" class="node">
<title>PersistenceService</title>
<ellipse fill="#fdb462" stroke="black" cx="107" cy="-104" rx="83.36" ry="18"/>
<text text-anchor="middle" x="107" y="-99.8" font-family="Times,serif" font-size="14.00">PersistenceService</text>
</g>
<!-- PersistenceService&#45;&gt;PersistenceModule -->
<g id="edge4" class="edge">
<title>PersistenceService&#45;&gt;PersistenceModule</title>
<path fill="none" stroke="black" d="M107,-122.11C107,-141.34 107,-169 107,-169 107,-169 212.59,-169 212.59,-169"/>
<polygon fill="black" stroke="black" points="212.59,-172.5 222.59,-169 212.59,-165.5 212.59,-172.5"/>
</g>
</g>
</svg>
