<?xml version="1.0" encoding="UTF-8" standalone="no"?>
<!DOCTYPE svg PUBLIC "-//W3C//DTD SVG 1.1//EN"
 "http://www.w3.org/Graphics/SVG/1.1/DTD/svg11.dtd">
<!-- Generated by graphviz version 2.47.0 (20210316.0004)
 -->
<!-- Title: dependencies Pages: 1 -->
<svg width="890pt" height="409pt"
 viewBox="0.00 0.00 890.00 409.00" xmlns="http://www.w3.org/2000/svg" xmlns:xlink="http://www.w3.org/1999/xlink">
<g id="graph0" class="graph" transform="scale(1 1) rotate(0) translate(4 405)">
<title>dependencies</title>
<polygon fill="white" stroke="transparent" points="-4,4 -4,-405 886,-405 886,4 -4,4"/>
<text text-anchor="start" x="420.01" y="-42.4" font-family="Times-12" font-weight="bold" font-size="14.00">Legend</text>
<polygon fill="#ffffb3" stroke="transparent" points="207,-10 207,-30 227,-30 227,-10 207,-10"/>
<text text-anchor="start" x="230.63" y="-15.4" font-family="Times-12" font-size="14.00"> &#160;Declarations</text>
<polygon fill="#8dd3c7" stroke="transparent" points="320,-10 320,-30 340,-30 340,-10 320,-10"/>
<text text-anchor="start" x="343.73" y="-15.4" font-family="Times-12" font-size="14.00"> &#160;Module</text>
<polygon fill="#80b1d3" stroke="transparent" points="406,-10 406,-30 426,-30 426,-10 406,-10"/>
<text text-anchor="start" x="429.78" y="-15.4" font-family="Times-12" font-size="14.00"> &#160;Bootstrap</text>
<polygon fill="#fdb462" stroke="transparent" points="503,-10 503,-30 523,-30 523,-10 503,-10"/>
<text text-anchor="start" x="526.67" y="-15.4" font-family="Times-12" font-size="14.00"> &#160;Providers</text>
<polygon fill="#fb8072" stroke="transparent" points="599,-10 599,-30 619,-30 619,-10 599,-10"/>
<text text-anchor="start" x="622.73" y="-15.4" font-family="Times-12" font-size="14.00"> &#160;Exports</text>
<g id="clust1" class="cluster">
<title>cluster_ExampleModule</title>
<polygon fill="none" stroke="black" stroke-dasharray="1,5" points="8,-70 8,-263 357,-263 357,-70 8,-70"/>
</g>
<g id="clust3" class="cluster">
<title>cluster_ExampleModule_imports</title>
<polygon fill="none" stroke="black" points="211,-146 211,-198 349,-198 349,-146 211,-146"/>
</g>
<g id="clust6" class="cluster">
<title>cluster_ExampleModule_providers</title>
<polygon fill="none" stroke="black" points="16,-78 16,-130 349,-130 349,-78 16,-78"/>
</g>
<g id="clust7" class="cluster">
<title>cluster_FooModule</title>
<polygon fill="none" stroke="black" stroke-dasharray="1,5" points="156,-276 156,-328 254,-328 254,-276 156,-276"/>
</g>
<g id="clust13" class="cluster">
<title>cluster_PersistenceModule</title>
<polygon fill="none" stroke="black" stroke-dasharray="1,5" points="365,-70 365,-138 874,-138 874,-70 365,-70"/>
</g>
<g id="clust16" class="cluster">
<title>cluster_PersistenceModule_exports</title>
<polygon fill="none" stroke="black" points="726,-78 726,-130 866,-130 866,-78 726,-78"/>
</g>
<g id="clust18" class="cluster">
<title>cluster_PersistenceModule_providers</title>
<polygon fill="none" stroke="black" points="373,-78 373,-130 718,-130 718,-78 373,-78"/>
</g>
<g id="clust19" class="cluster">
<title>cluster_RootModule</title>
<polygon fill="none" stroke="black" stroke-dasharray="1,5" points="195,-341 195,-393 297,-393 297,-341 195,-341"/>
</g>
<!-- PersistenceModule -->
<g id="node1" class="node">
<title>PersistenceModule</title>
<polygon fill="#8dd3c7" stroke="black" points="341.02,-190 338.02,-194 317.02,-194 314.02,-190 218.98,-190 218.98,-154 341.02,-154 341.02,-190"/>
<text text-anchor="middle" x="280" y="-167.8" font-family="Times,serif" font-size="14.00">PersistenceModule</text>
</g>
<!-- ExampleModule -->
<g id="node2" class="node">
<title>ExampleModule</title>
<polygon fill="#8dd3c7" stroke="black" points="252.81,-255 249.81,-259 228.81,-259 225.81,-255 143.19,-255 143.19,-219 252.81,-219 252.81,-255"/>
<text text-anchor="middle" x="198" y="-232.8" font-family="Times,serif" font-size="14.00">ExampleModule</text>
</g>
<!-- PersistenceModule&#45;&gt;ExampleModule -->
<g id="edge1" class="edge">
<title>PersistenceModule&#45;&gt;ExampleModule</title>
<path fill="none" stroke="black" d="M235.7,-190.11C235.7,-190.11 235.7,-208.99 235.7,-208.99"/>
<polygon fill="black" stroke="black" points="232.2,-208.99 235.7,-218.99 239.2,-208.99 232.2,-208.99"/>
</g>
<!-- PersistenceService  -->
<g id="node6" class="node">
<title>PersistenceService </title>
<polygon fill="#fb8072" stroke="black" points="858.45,-122 733.55,-122 733.55,-86 858.45,-86 858.45,-122"/>
<text text-anchor="middle" x="796" y="-99.8" font-family="Times,serif" font-size="14.00">PersistenceService </text>
</g>
<!-- PersistenceModule&#45;&gt;PersistenceService  -->
<g id="edge5" class="edge">
<title>PersistenceModule&#45;&gt;PersistenceService </title>
<path fill="none" stroke="black" stroke-dasharray="5,2" d="M341.22,-181C477.9,-181 796,-181 796,-181 796,-181 796,-132.25 796,-132.25"/>
<polygon fill="black" stroke="black" points="799.5,-132.25 796,-122.25 792.5,-132.25 799.5,-132.25"/>
</g>
<!-- RootModule -->
<g id="node9" class="node">
<title>RootModule</title>
<polygon fill="#8dd3c7" stroke="black" points="289.28,-385 286.28,-389 265.28,-389 262.28,-385 202.72,-385 202.72,-349 289.28,-349 289.28,-385"/>
<text text-anchor="middle" x="246" y="-362.8" font-family="Times,serif" font-size="14.00">RootModule</text>
</g>
<!-- PersistenceModule&#45;&gt;RootModule -->
<g id="edge10" class="edge">
<title>PersistenceModule&#45;&gt;RootModule</title>
<path fill="none" stroke="black" d="M271.02,-190.35C271.02,-190.35 271.02,-338.85 271.02,-338.85"/>
<polygon fill="black" stroke="black" points="267.52,-338.85 271.02,-348.85 274.52,-338.85 267.52,-338.85"/>
</g>
<!-- FooModule -->
<g id="node5" class="node">
<title>FooModule</title>
<polygon fill="#8dd3c7" stroke="black" points="245.83,-320 242.83,-324 221.83,-324 218.83,-320 164.17,-320 164.17,-284 245.83,-284 245.83,-320"/>
<text text-anchor="middle" x="205" y="-297.8" font-family="Times,serif" font-size="14.00">FooModule</text>
</g>
<!-- ExampleModule&#45;&gt;FooModule -->
<g id="edge4" class="edge">
<title>ExampleModule&#45;&gt;FooModule</title>
<path fill="none" stroke="black" d="M205,-255.11C205,-255.11 205,-273.99 205,-273.99"/>
<polygon fill="black" stroke="black" points="201.5,-273.99 205,-283.99 208.5,-273.99 201.5,-273.99"/>
</g>
<!-- DatabaseService -->
<g id="node3" class="node">
<title>DatabaseService</title>
<ellipse fill="#fdb462" stroke="black" cx="266" cy="-104" rx="75.26" ry="18"/>
<text text-anchor="middle" x="266" y="-99.8" font-family="Times,serif" font-size="14.00">DatabaseService</text>
</g>
<!-- DatabaseService&#45;&gt;PersistenceModule -->
<g id="edge7" class="edge">
<title>DatabaseService&#45;&gt;PersistenceModule</title>
<path fill="none" stroke="black" d="M280,-121.87C280,-121.87 280,-143.54 280,-143.54"/>
<polygon fill="black" stroke="black" points="276.5,-143.54 280,-153.54 283.5,-143.54 276.5,-143.54"/>
</g>
<!-- DatabaseService&#45;&gt;ExampleModule -->
<g id="edge2" class="edge">
<title>DatabaseService&#45;&gt;ExampleModule</title>
<path fill="none" stroke="black" d="M204.68,-114.88C204.68,-114.88 204.68,-208.87 204.68,-208.87"/>
<polygon fill="black" stroke="black" points="201.18,-208.87 204.68,-218.87 208.18,-208.87 201.18,-208.87"/>
</g>
<!-- ExampleService -->
<g id="node4" class="node">
<title>ExampleService</title>
<ellipse fill="#fdb462" stroke="black" cx="98" cy="-104" rx="74.14" ry="18"/>
<text text-anchor="middle" x="98" y="-99.8" font-family="Times,serif" font-size="14.00">ExampleService</text>
</g>
<!-- ExampleService&#45;&gt;ExampleModule -->
<g id="edge3" class="edge">
<title>ExampleService&#45;&gt;ExampleModule</title>
<path fill="none" stroke="black" d="M157.83,-114.88C157.83,-114.88 157.83,-208.87 157.83,-208.87"/>
<polygon fill="black" stroke="black" points="154.33,-208.87 157.83,-218.87 161.33,-208.87 154.33,-208.87"/>
</g>
<!-- FooModule&#45;&gt;RootModule -->
<g id="edge9" class="edge">
<title>FooModule&#45;&gt;RootModule</title>
<path fill="none" stroke="black" d="M224.14,-320.11C224.14,-320.11 224.14,-338.99 224.14,-338.99"/>
<polygon fill="black" stroke="black" points="220.64,-338.99 224.14,-348.99 227.64,-338.99 220.64,-338.99"/>
</g>
<!-- CachingService -->
<g id="node7" class="node">
<title>CachingService</title>
<ellipse fill="#fdb462" stroke="black" cx="638" cy="-104" rx="72.35" ry="18"/>
<text text-anchor="middle" x="638" y="-99.8" font-family="Times,serif" font-size="14.00">CachingService</text>
</g>
<!-- CachingService&#45;&gt;PersistenceModule -->
<g id="edge6" class="edge">
<title>CachingService&#45;&gt;PersistenceModule</title>
<path fill="none" stroke="black" d="M638,-122.22C638,-142.37 638,-172 638,-172 638,-172 351.14,-172 351.14,-172"/>
<polygon fill="black" stroke="black" points="351.14,-168.5 341.14,-172 351.14,-175.5 351.14,-168.5"/>
</g>
<!-- PersistenceService -->
<g id="node8" class="node">
<title>PersistenceService</title>
<ellipse fill="#fdb462" stroke="black" cx="464" cy="-104" rx="83.36" ry="18"/>
<text text-anchor="middle" x="464" y="-99.8" font-family="Times,serif" font-size="14.00">PersistenceService</text>
</g>
<!-- PersistenceService&#45;&gt;PersistenceModule -->
<g id="edge8" class="edge">
<title>PersistenceService&#45;&gt;PersistenceModule</title>
<path fill="none" stroke="black" d="M464,-122.02C464,-139.37 464,-163 464,-163 464,-163 351.27,-163 351.27,-163"/>
<polygon fill="black" stroke="black" points="351.27,-159.5 341.27,-163 351.27,-166.5 351.27,-159.5"/>
</g>
</g>
</svg>
