<?xml version="1.0" encoding="UTF-8" standalone="no"?>
<!DOCTYPE svg PUBLIC "-//W3C//DTD SVG 1.1//EN"
 "http://www.w3.org/Graphics/SVG/1.1/DTD/svg11.dtd">
<!-- Generated by graphviz version 2.47.0 (20210316.0004)
 -->
<!-- Title: dependencies Pages: 1 -->
<svg width="519pt" height="211pt"
 viewBox="0.00 0.00 519.00 211.00" xmlns="http://www.w3.org/2000/svg" xmlns:xlink="http://www.w3.org/1999/xlink">
<g id="graph0" class="graph" transform="scale(1 1) rotate(0) translate(4 207)">
<title>dependencies</title>
<polygon fill="white" stroke="transparent" points="-4,4 -4,-207 515,-207 515,4 -4,4"/>
<text text-anchor="start" x="234.51" y="-42.4" font-family="Times-12" font-weight="bold" font-size="14.00">Legend</text>
<polygon fill="#ffffb3" stroke="transparent" points="21.5,-10 21.5,-30 41.5,-30 41.5,-10 21.5,-10"/>
<text text-anchor="start" x="45.13" y="-15.4" font-family="Times-12" font-size="14.00"> &#160;Declarations</text>
<polygon fill="#8dd3c7" stroke="transparent" points="134.5,-10 134.5,-30 154.5,-30 154.5,-10 134.5,-10"/>
<text text-anchor="start" x="158.23" y="-15.4" font-family="Times-12" font-size="14.00"> &#160;Module</text>
<polygon fill="#80b1d3" stroke="transparent" points="220.5,-10 220.5,-30 240.5,-30 240.5,-10 220.5,-10"/>
<text text-anchor="start" x="244.28" y="-15.4" font-family="Times-12" font-size="14.00"> &#160;Bootstrap</text>
<polygon fill="#fdb462" stroke="transparent" points="317.5,-10 317.5,-30 337.5,-30 337.5,-10 317.5,-10"/>
<text text-anchor="start" x="341.17" y="-15.4" font-family="Times-12" font-size="14.00"> &#160;Providers</text>
<polygon fill="#fb8072" stroke="transparent" points="413.5,-10 413.5,-30 433.5,-30 433.5,-10 413.5,-10"/>
<text text-anchor="start" x="437.23" y="-15.4" font-family="Times-12" font-size="14.00"> &#160;Exports</text>
<g id="clust1" class="cluster">
<title>cluster_ExampleModule</title>
<polygon fill="none" stroke="black" stroke-dasharray="1,5" points="8,-70 8,-195 503,-195 503,-70 8,-70"/>
</g>
<g id="clust6" class="cluster">
<title>cluster_ExampleModule_providers</title>
<polygon fill="none" stroke="black" points="162,-78 162,-130 495,-130 495,-78 162,-78"/>
</g>
<g id="clust3" class="cluster">
<title>cluster_ExampleModule_imports</title>
<polygon fill="none" stroke="black" points="16,-78 16,-130 154,-130 154,-78 16,-78"/>
</g>
<!-- PersistenceModule -->
<g id="node1" class="node">
<title>PersistenceModule</title>
<polygon fill="#8dd3c7" stroke="black" points="146.02,-122 143.02,-126 122.02,-126 119.02,-122 23.98,-122 23.98,-86 146.02,-86 146.02,-122"/>
<text text-anchor="middle" x="85" y="-99.8" font-family="Times,serif" font-size="14.00">PersistenceModule</text>
</g>
<!-- ExampleModule -->
<g id="node2" class="node">
<title>ExampleModule</title>
<polygon fill="#8dd3c7" stroke="black" points="298.81,-187 295.81,-191 274.81,-191 271.81,-187 189.19,-187 189.19,-151 298.81,-151 298.81,-187"/>
<text text-anchor="middle" x="244" y="-164.8" font-family="Times,serif" font-size="14.00">ExampleModule</text>
</g>
<!-- PersistenceModule&#45;&gt;ExampleModule -->
<g id="edge1" class="edge">
<title>PersistenceModule&#45;&gt;ExampleModule</title>
<path fill="none" stroke="black" d="M85,-122.11C85,-141.34 85,-169 85,-169 85,-169 179.28,-169 179.28,-169"/>
<polygon fill="black" stroke="black" points="179.28,-172.5 189.28,-169 179.28,-165.5 179.28,-172.5"/>
</g>
<!-- DatabaseService -->
<g id="node3" class="node">
<title>DatabaseService</title>
<ellipse fill="#fdb462" stroke="black" cx="412" cy="-104" rx="75.26" ry="18"/>
<text text-anchor="middle" x="412" y="-99.8" font-family="Times,serif" font-size="14.00">DatabaseService</text>
</g>
<!-- DatabaseService&#45;&gt;ExampleModule -->
<g id="edge2" class="edge">
<title>DatabaseService&#45;&gt;ExampleModule</title>
<path fill="none" stroke="black" d="M412,-122.11C412,-141.34 412,-169 412,-169 412,-169 309.01,-169 309.01,-169"/>
<polygon fill="black" stroke="black" points="309.01,-165.5 299.01,-169 309.01,-172.5 309.01,-165.5"/>
</g>
<!-- ExampleService -->
<g id="node4" class="node">
<title>ExampleService</title>
<ellipse fill="#fdb462" stroke="black" cx="244" cy="-104" rx="74.14" ry="18"/>
<text text-anchor="middle" x="244" y="-99.8" font-family="Times,serif" font-size="14.00">ExampleService</text>
</g>
<!-- ExampleService&#45;&gt;ExampleModule -->
<g id="edge3" class="edge">
<title>ExampleService&#45;&gt;ExampleModule</title>
<path fill="none" stroke="black" d="M244,-122.11C244,-122.11 244,-140.99 244,-140.99"/>
<polygon fill="black" stroke="black" points="240.5,-140.99 244,-150.99 247.5,-140.99 240.5,-140.99"/>
</g>
</g>
</svg>
