<?xml version="1.0" encoding="UTF-8" standalone="no"?>
<!DOCTYPE svg PUBLIC "-//W3C//DTD SVG 1.1//EN"
 "http://www.w3.org/Graphics/SVG/1.1/DTD/svg11.dtd">
<!-- Generated by graphviz version 2.47.0 (20210316.0004)
 -->
<!-- Title: dependencies Pages: 1 -->
<svg width="504pt" height="211pt"
 viewBox="0.00 0.00 504.00 211.00" xmlns="http://www.w3.org/2000/svg" xmlns:xlink="http://www.w3.org/1999/xlink">
<g id="graph0" class="graph" transform="scale(1 1) rotate(0) translate(4 207)">
<title>dependencies</title>
<polygon fill="white" stroke="transparent" points="-4,4 -4,-207 500,-207 500,4 -4,4"/>
<text text-anchor="start" x="227.01" y="-42.4" font-family="Times-12" font-weight="bold" font-size="14.00">Legend</text>
<polygon fill="#ffffb3" stroke="transparent" points="14,-10 14,-30 34,-30 34,-10 14,-10"/>
<text text-anchor="start" x="37.63" y="-15.4" font-family="Times-12" font-size="14.00"> &#160;Declarations</text>
<polygon fill="#8dd3c7" stroke="transparent" points="127,-10 127,-30 147,-30 147,-10 127,-10"/>
<text text-anchor="start" x="150.73" y="-15.4" font-family="Times-12" font-size="14.00"> &#160;Module</text>
<polygon fill="#80b1d3" stroke="transparent" points="213,-10 213,-30 233,-30 233,-10 213,-10"/>
<text text-anchor="start" x="236.78" y="-15.4" font-family="Times-12" font-size="14.00"> &#160;Bootstrap</text>
<polygon fill="#fdb462" stroke="transparent" points="310,-10 310,-30 330,-30 330,-10 310,-10"/>
<text text-anchor="start" x="333.67" y="-15.4" font-family="Times-12" font-size="14.00"> &#160;Providers</text>
<polygon fill="#fb8072" stroke="transparent" points="406,-10 406,-30 426,-30 426,-10 406,-10"/>
<text text-anchor="start" x="429.73" y="-15.4" font-family="Times-12" font-size="14.00"> &#160;Exports</text>
<g id="clust1" class="cluster">
<title>cluster_RootModule</title>
<polygon fill="none" stroke="black" stroke-dasharray="1,5" points="121,-70 121,-195 375,-195 375,-70 121,-70"/>
</g>
<g id="clust3" class="cluster">
<title>cluster_RootModule_imports</title>
<polygon fill="none" stroke="black" points="129,-78 129,-130 367,-130 367,-78 129,-78"/>
</g>
<!-- FooModule -->
<g id="node1" class="node">
<title>FooModule</title>
<polygon fill="#8dd3c7" stroke="black" points="358.83,-122 355.83,-126 334.83,-126 331.83,-122 277.17,-122 277.17,-86 358.83,-86 358.83,-122"/>
<text text-anchor="middle" x="318" y="-99.8" font-family="Times,serif" font-size="14.00">FooModule</text>
</g>
<!-- RootModule -->
<g id="node3" class="node">
<title>RootModule</title>
<polygon fill="#8dd3c7" stroke="black" points="301.28,-187 298.28,-191 277.28,-191 274.28,-187 214.72,-187 214.72,-151 301.28,-151 301.28,-187"/>
<text text-anchor="middle" x="258" y="-164.8" font-family="Times,serif" font-size="14.00">RootModule</text>
</g>
<!-- FooModule&#45;&gt;RootModule -->
<g id="edge1" class="edge">
<title>FooModule&#45;&gt;RootModule</title>
<path fill="none" stroke="black" d="M289.36,-122.11C289.36,-122.11 289.36,-140.99 289.36,-140.99"/>
<polygon fill="black" stroke="black" points="285.86,-140.99 289.36,-150.99 292.86,-140.99 285.86,-140.99"/>
</g>
<!-- PersistenceModule -->
<g id="node2" class="node">
<title>PersistenceModule</title>
<polygon fill="#8dd3c7" stroke="black" points="259.02,-122 256.02,-126 235.02,-126 232.02,-122 136.98,-122 136.98,-86 259.02,-86 259.02,-122"/>
<text text-anchor="middle" x="198" y="-99.8" font-family="Times,serif" font-size="14.00">PersistenceModule</text>
</g>
<!-- PersistenceModule&#45;&gt;RootModule -->
<g id="edge2" class="edge">
<title>PersistenceModule&#45;&gt;RootModule</title>
<path fill="none" stroke="black" d="M236.94,-122.11C236.94,-122.11 236.94,-140.99 236.94,-140.99"/>
<polygon fill="black" stroke="black" points="233.44,-140.99 236.94,-150.99 240.44,-140.99 233.44,-140.99"/>
</g>
</g>
</svg>
